<svg width="195" height="29" viewBox="0 0 195 29" fill="none" xmlns="http://www.w3.org/2000/svg">
<g clip-path="url(#clip0)">
<path d="M71.4438 1.12494C67.3752 2.44992 63.127 6.18395 63.6655 10.3998C63.6655 15.2179 68.4522 18.9519 73.179 20.5178C69.4693 16.2418 66.8367 10.9418 69.1702 5.09988C70.2472 2.6306 71.4438 1.12494 71.4438 1.12494Z" fill="#6CB94F"/>
<path d="M62.6486 11.544C61.0331 15.7599 62.5888 21.0598 65.76 23.2279C70.0082 26.4199 75.812 24.854 80.0602 21.12C74.2563 22.2041 67.914 21.12 64.683 15.8803C63.247 13.411 62.6486 11.544 62.6486 11.544Z" fill="#158E9B"/>
<path d="M66.4785 24.8542C69.4104 28.4678 74.7355 29.9735 78.9837 28.3474C81.8557 27.203 84.0097 24.0713 84.4884 20.5179C84.7875 18.7111 84.4285 17.2055 84.1892 15.3987C82.095 21.2406 77.3682 25.336 71.2652 25.6372C68.453 25.4565 66.4785 24.8542 66.4785 24.8542Z" fill="#2FB7E9"/>
<path d="M80.7781 28.5884C85.3853 27.4441 90.1121 23.168 90.1121 18.4101C90.1121 15.2181 86.8213 9.49664 80.5986 8.29211C84.8468 12.5682 87.4795 19.4942 83.8296 24.8544C82.2141 27.2032 80.7781 28.5884 80.7781 28.5884Z" fill="#EB58A0"/>
<path d="M91.0096 17.085C91.6678 12.5078 90.5908 6.66586 86.4025 4.49771C83.7698 2.8716 76.0513 4.43748 73.7178 8.77378C79.0429 6.66586 85.864 7.14767 89.095 12.8692C90.4711 15.218 91.0096 17.085 91.0096 17.085Z" fill="#EA545E"/>
<path d="M85.5054 2.99211C82.1547 0.281923 76.8894 -1.28396 73.1797 1.366C68.9316 4.01596 67.9144 9.85791 70.5471 14.676C71.0856 8.83407 75.3337 4.01596 80.9581 2.99211C83.5907 2.69098 85.5054 2.99211 85.5054 2.99211Z" fill="#EF7543"/>
<path d="M13.7647 21.0602C13.7647 19.9761 13.3458 19.0727 12.568 18.2898C11.7902 17.5671 10.414 16.9046 8.4395 16.4228C5.98633 15.8205 4.07166 14.9171 2.69549 13.7126C1.31932 12.508 0.661157 11.0626 0.661157 9.25582C0.661157 7.3888 1.37916 5.76269 2.87499 4.49794C4.37083 3.23318 6.28549 2.63092 8.619 2.63092C11.132 2.63092 13.1663 3.35364 14.6622 4.79907C16.158 6.2445 16.876 7.93084 16.876 9.85808L16.8162 9.97854H13.7048C13.7048 8.59333 13.2262 7.44903 12.2688 6.54563C11.3115 5.64224 10.1148 5.22065 8.619 5.22065C7.12316 5.22065 5.92649 5.58201 5.14866 6.30473C4.31099 7.02744 3.95199 7.99107 3.95199 9.19559C3.95199 10.2194 4.37083 11.1228 5.26833 11.8456C6.16583 12.5683 7.60183 13.1705 9.57633 13.7126C11.9697 14.3148 13.8245 15.2785 15.081 16.483C16.3375 17.6875 16.9957 19.2534 16.9957 21.0602C16.9957 22.9874 16.2178 24.5533 14.722 25.7578C13.2262 26.9624 11.1918 27.5044 8.73866 27.5044C6.40516 27.5044 4.37083 26.8419 2.57582 25.5169C0.780823 24.192 -0.0568439 22.4454 0.00298946 20.2772L0.0628229 20.1568H3.17416C3.17416 21.6624 3.77249 22.867 4.90933 23.6499C6.04616 24.4931 7.3625 24.9147 8.7985 24.9147C10.3542 24.9147 11.5508 24.5533 12.4483 23.8908C13.286 23.1681 13.7647 22.2647 13.7647 21.0602Z" fill="#5584AC"/>
<path d="M39.9119 17.2051C39.9119 20.1562 39.0144 22.6255 37.1595 24.5528C35.3645 26.48 32.9712 27.5039 30.0992 27.5039C27.287 27.5039 25.0133 26.5402 23.2782 24.5528C21.543 22.6255 20.6455 20.1562 20.6455 17.2051V12.9291C20.6455 9.97799 21.543 7.50871 23.2782 5.58146C25.0133 3.59399 27.287 2.63037 30.0992 2.63037C33.031 2.63037 35.3645 3.59399 37.1595 5.58146C38.9545 7.50871 39.9119 9.97799 39.9119 12.9291V17.2051ZM36.6809 12.8689C36.6809 10.6405 36.0825 8.83369 34.8859 7.44848C33.6892 6.00305 32.1335 5.34056 30.0992 5.34056C28.1845 5.34056 26.6887 6.06327 25.5518 7.44848C24.415 8.89391 23.8765 10.7007 23.8765 12.8689V17.2051C23.8765 19.4335 24.415 21.2403 25.5518 22.6857C26.6887 24.1312 28.1845 24.7937 30.0992 24.7937C32.1335 24.7937 33.6892 24.071 34.8859 22.6857C36.0825 21.3005 36.6809 19.4335 36.6809 17.2051V12.8689Z" fill="#5584AC"/>
<path d="M47.8697 24.6128H59.597V27.1423H44.6387V2.99152H47.8697V24.6128Z" fill="#5584AC"/>
<path d="M100.044 24.6128H111.772V27.1423H96.8135V2.99152H100.044V24.6128Z" fill="#959494"/>
<path d="M128.465 15.9402H118.592V24.6128H130.14V27.1423H115.361V2.99152H129.961V5.58125H118.592V13.4107H128.465V15.9402Z" fill="#959494"/>
<path d="M146.355 20.939H137.32L135.166 27.1423H131.875L140.551 2.99152H143.363L151.859 27.1423H148.569L146.355 20.939ZM138.277 18.1686H145.457L141.987 7.80962H141.867L138.277 18.1686Z" fill="#959494"/>
<path d="M158.561 16.6629V27.1423H155.33V2.99152H163.527C166.16 2.99152 168.134 3.59378 169.57 4.73808C170.947 5.88238 171.665 7.62895 171.665 9.85732C171.665 11.1221 171.365 12.2061 170.707 13.1095C170.049 14.0129 169.152 14.7357 167.895 15.2777C169.211 15.6993 170.169 16.422 170.767 17.3856C171.365 18.3492 171.605 19.5538 171.605 20.9992V23.2878C171.605 24.0105 171.665 24.7332 171.844 25.3355C172.024 25.9378 172.323 26.4196 172.682 26.7809V27.2025H169.331C168.912 26.8412 168.613 26.2991 168.493 25.5162C168.374 24.7935 168.314 24.0105 168.314 23.2878V20.9992C168.314 19.6742 167.955 18.6504 167.177 17.8674C166.399 17.0845 165.382 16.6629 164.126 16.6629H158.561ZM158.561 14.0732H163.168C165.023 14.0732 166.339 13.7118 167.117 12.9891C167.895 12.2664 168.314 11.2425 168.314 9.79709C168.314 8.41189 167.895 7.38804 167.117 6.6051C166.339 5.88238 165.083 5.4608 163.467 5.4608H158.501V14.0732H158.561Z" fill="#959494"/>
<path d="M195 27.1423H191.769L180.221 8.65279L180.101 8.71302V27.1423H176.87V2.99152H180.101L191.649 21.4208L191.769 21.3606V2.99152H195V27.1423Z" fill="#959494"/>
</g>
<defs>
<clipPath id="clip0">
<rect width="195" height="29" fill="white"/>
</clipPath>
</defs>
</svg>
